<svg width="32" height="32" viewBox="0 0 32 32" fill="none" xmlns="http://www.w3.org/2000/svg">
<path d="M29.162 1.2075H2.83953C1.93793 1.2075 1.20703 1.9384 1.20703 2.84V29.1625C1.20703 30.0641 1.93793 30.795 2.83953 30.795H29.162C30.0636 30.795 30.7945 30.0641 30.7945 29.1625V2.84C30.7945 1.9384 30.0636 1.2075 29.162 1.2075Z" fill="#3D5A98"/>
<path d="M21.6193 30.7925V19.335H25.4643L26.0393 14.87H21.6193V12.02C21.6193 10.7275 21.9793 9.84501 23.8318 9.84501H26.1968V5.845C25.0516 5.72565 23.9007 5.6689 22.7493 5.67501C19.3443 5.67501 16.9993 7.75001 16.9993 11.5775V14.87H13.1543V19.335H16.9993V30.7925H21.6193Z" fill="white"/>
</svg>
