<svg width="40" height="40" viewBox="0 0 40 40" fill="none" xmlns="http://www.w3.org/2000/svg">
<path d="M20 3.75C16.7861 3.75 13.6443 4.70305 10.972 6.48862C8.29969 8.27419 6.21689 10.8121 4.98696 13.7814C3.75704 16.7507 3.43524 20.018 4.06225 23.1702C4.68926 26.3224 6.23692 29.2179 8.50952 31.4905C10.7821 33.7631 13.6776 35.3107 16.8298 35.9378C19.982 36.5648 23.2493 36.243 26.2186 35.013C29.1879 33.7831 31.7258 31.7003 33.5114 29.028C35.297 26.3557 36.25 23.2139 36.25 20C36.2455 15.6916 34.5319 11.561 31.4855 8.51454C28.439 5.46806 24.3084 3.75455 20 3.75ZM21.25 33.6922V23.75H25C25.3315 23.75 25.6495 23.6183 25.8839 23.3839C26.1183 23.1495 26.25 22.8315 26.25 22.5C26.25 22.1685 26.1183 21.8505 25.8839 21.6161C25.6495 21.3817 25.3315 21.25 25 21.25H21.25V17.5C21.25 16.837 21.5134 16.2011 21.9822 15.7322C22.4511 15.2634 23.087 15 23.75 15H26.25C26.5815 15 26.8995 14.8683 27.1339 14.6339C27.3683 14.3995 27.5 14.0815 27.5 13.75C27.5 13.4185 27.3683 13.1005 27.1339 12.8661C26.8995 12.6317 26.5815 12.5 26.25 12.5H23.75C22.4239 12.5 21.1522 13.0268 20.2145 13.9645C19.2768 14.9021 18.75 16.1739 18.75 17.5V21.25H15C14.6685 21.25 14.3505 21.3817 14.1161 21.6161C13.8817 21.8505 13.75 22.1685 13.75 22.5C13.75 22.8315 13.8817 23.1495 14.1161 23.3839C14.3505 23.6183 14.6685 23.75 15 23.75H18.75V33.6922C15.2262 33.3705 11.9621 31.7028 9.63663 29.0359C7.31112 26.369 6.10325 22.9082 6.26425 19.3735C6.42525 15.8387 7.94274 12.5021 10.5011 10.0577C13.0594 7.61322 16.4616 6.24912 20 6.24912C23.5384 6.24912 26.9406 7.61322 29.499 10.0577C32.0573 12.5021 33.5748 15.8387 33.7358 19.3735C33.8968 22.9082 32.6889 26.369 30.3634 29.0359C28.0379 31.7028 24.7738 33.3705 21.25 33.6922Z" fill="white"/>
</svg>
