<svg width="62" height="60" viewBox="0 0 62 60" fill="none" xmlns="http://www.w3.org/2000/svg">
<g clip-path="url(#clip0_2747_2308)">
<rect width="61.1022" height="60" fill="white"/>
<path d="M20.948 46.4884C21.2442 44.627 19.6169 38.72 13.6506 31.9571C6.03683 23.3268 11.6205 9.43016 18.2194 4.86179C22.8227 1.67493 32.243 -2.68936 43.0304 4.86179C51.6603 10.9027 53.2588 20.2246 50.7719 26.6269C43.9822 37.6681 39.7942 41.4627 39.7942 46.4884H42.5154C42.7999 46.4884 43.0304 46.7189 43.0304 47.0033V51.8113C43.0304 52.0957 42.7999 52.3262 42.5154 52.3262H40.1749C40.1749 58.291 37.4464 60.1312 31.1643 60.1312C23.6847 60.1312 21.5947 58.1641 21.5947 52.3262H18.0999C17.8155 52.3262 17.5849 52.0957 17.5849 51.8113V47.0033C17.5849 46.7189 17.8155 46.4884 18.0999 46.4884H20.948Z" fill="#EEA91F"/>
<path d="M20.948 46.4884C21.2442 44.627 19.6169 38.72 13.6506 31.9571C6.03683 23.3268 11.6205 9.43016 18.2194 4.86179C22.8227 1.67493 32.243 -2.68936 43.0304 4.86179C51.6603 10.9027 53.2588 20.2246 50.7719 26.6269C43.9822 37.6681 39.7942 41.4627 39.7942 46.4884M21.5947 52.3262C21.5947 58.1641 23.6847 60.1312 31.1643 60.1312C37.4464 60.1312 40.1749 58.291 40.1749 52.3262M40.1749 52.3262H42.5154C42.7999 52.3262 43.0304 52.0957 43.0304 51.8113V47.0033C43.0304 46.7189 42.7999 46.4884 42.5154 46.4884H34.8825M40.1749 52.3262H18.0999C17.8155 52.3262 17.5849 52.0957 17.5849 51.8113V47.0033C17.5849 46.7189 17.8155 46.4884 18.0999 46.4884H26.1M26.1 46.4884V26.6269C26.2823 24.1967 26.1 21.3668 22.2806 21.3668C18.0443 21.3668 18.8539 26.6269 21.5826 26.6269H35.301M26.1 46.4884H34.8825M35.301 26.6269H39.6159C42.4714 26.6269 42.0907 22.0077 39.6159 21.3668C35.1076 20.1992 35.2587 24.6832 35.301 26.6269ZM35.301 26.6269L34.8825 46.4884" stroke="#EEA91F" stroke-width="1.46645"/>
<path d="M16.8506 46.1604C16.8506 45.8747 17.0832 45.6436 17.3689 45.6454L43.6584 45.8158C43.9415 45.8176 44.17 46.0476 44.17 46.3307V52.6208C44.17 52.9052 43.9394 53.1357 43.655 53.1357H41.8688H40.3125H21.5933H17.3655C17.0811 53.1357 16.8506 52.9052 16.8506 52.6208V46.1604Z" fill="#50758D"/>
<path d="M20.9212 53.0985C20.8605 52.7811 21.1038 52.4868 21.427 52.4868H40.9451C41.2703 52.4868 41.5141 52.7846 41.4499 53.1034L40.7869 56.3972C40.4369 58.1358 39.3261 59.6261 37.76 60.4582L37.2572 60.7253C36.7922 60.9724 36.2737 61.1016 35.7471 61.1016H31.7251H26.8953C26.414 61.1016 25.9388 60.9936 25.5048 60.7857L24.7737 60.4354C23.0779 59.6231 21.8688 58.0538 21.5156 56.207L20.9212 53.0985Z" fill="#50758D"/>
<path d="M23.1178 52.8408H20.7699C20.6218 55.231 21.9656 61.4073 28.2575 61.09C24.8563 59.6178 23.3716 54.7022 23.1178 52.8408Z" fill="url(#paint0_linear_2747_2308)"/>
<path d="M19.2449 45.8601H17.7311C17.3756 45.8601 17.0874 46.1483 17.0874 46.5038V52.4539C17.0874 52.6672 17.2603 52.8402 17.4736 52.8402H19.2449V45.8601Z" fill="url(#paint1_linear_2747_2308)"/>
<path d="M17.0874 50.176H31.1561C31.8671 50.176 32.4435 50.7524 32.4435 51.4634V51.5537C32.4435 52.2648 31.8671 52.8411 31.1561 52.8411H17.6024C17.318 52.8411 17.0874 52.6106 17.0874 52.3262V50.176Z" fill="#285C73"/>
<path d="M26.0559 45.7606V26.6429M26.0559 26.6429C26.2327 24.0467 25.9969 20.3294 20.4502 21.7455C19.9189 21.9815 19.1639 22.7132 19.2111 23.9877C19.2583 25.2622 19.8601 26.0529 20.1551 26.2299C20.3912 26.4069 21.2762 27.0559 26.0559 26.6429ZM26.0559 26.6429H35.3782M35.3782 26.6429L39.6266 26.7609C40.2363 26.7019 41.6492 26.0523 41.6918 24.5187C41.7508 22.3946 40.5707 21.5095 39.5676 21.2735C38.3875 21.1555 37.3254 20.9194 36.2043 22.0405C35.6733 22.6305 35.3782 23.8697 35.3782 25.6398V26.6429ZM35.3782 26.6429L35.0242 45.7606" stroke="white" stroke-width="1.46645"/>
<path d="M18.1479 4.04423C23.4005 0.312095 29.6539 -0.145108 32.4271 0.0318939C8.98937 9.74181 17.0023 34.5518 24.8149 45.6429H23.6938H20.3305C19.7403 41.6305 16.9081 36.9691 15.02 34.6679C13.3089 32.4847 10.0051 29.5345 9.41491 24.106C8.88099 19.1949 10.1253 15.3732 11.4213 12.482C11.9841 11.2263 13.6635 7.23052 18.1479 4.04423Z" fill="url(#paint2_linear_2747_2308)"/>
</g>
<defs>
<linearGradient id="paint0_linear_2747_2308" x1="21.341" y1="56.4578" x2="30.6689" y2="56.4578" gradientUnits="userSpaceOnUse">
<stop offset="0.0197719" stop-color="#285C73"/>
<stop offset="1" stop-color="#285C73" stop-opacity="0"/>
</linearGradient>
<linearGradient id="paint1_linear_2747_2308" x1="16.5798" y1="48.6521" x2="25.9711" y2="48.779" gradientUnits="userSpaceOnUse">
<stop stop-color="#285C73"/>
<stop offset="1" stop-color="#285C73" stop-opacity="0"/>
</linearGradient>
<linearGradient id="paint2_linear_2747_2308" x1="4.02258" y1="23.2816" x2="34.1568" y2="23.2816" gradientUnits="userSpaceOnUse">
<stop stop-color="#CE7004"/>
<stop offset="0.643839" stop-color="#F89A2D" stop-opacity="0.03"/>
</linearGradient>
<clipPath id="clip0_2747_2308">
<rect width="61.1022" height="60" fill="white"/>
</clipPath>
</defs>
</svg>
