<svg width="40" height="40" viewBox="0 0 40 40" fill="none" xmlns="http://www.w3.org/2000/svg">
<path d="M33.75 3.75H6.25C5.58696 3.75 4.95107 4.01339 4.48223 4.48223C4.01339 4.95107 3.75 5.58696 3.75 6.25V33.75C3.75 34.413 4.01339 35.0489 4.48223 35.5178C4.95107 35.9866 5.58696 36.25 6.25 36.25H33.75C34.413 36.25 35.0489 35.9866 35.5178 35.5178C35.9866 35.0489 36.25 34.413 36.25 33.75V6.25C36.25 5.58696 35.9866 4.95107 35.5178 4.48223C35.0489 4.01339 34.413 3.75 33.75 3.75ZM33.75 33.75H6.25V6.25H33.75V33.75ZM15 17.5V27.5C15 27.8315 14.8683 28.1495 14.6339 28.3839C14.3995 28.6183 14.0815 28.75 13.75 28.75C13.4185 28.75 13.1005 28.6183 12.8661 28.3839C12.6317 28.1495 12.5 27.8315 12.5 27.5V17.5C12.5 17.1685 12.6317 16.8505 12.8661 16.6161C13.1005 16.3817 13.4185 16.25 13.75 16.25C14.0815 16.25 14.3995 16.3817 14.6339 16.6161C14.8683 16.8505 15 17.1685 15 17.5ZM28.75 21.875V27.5C28.75 27.8315 28.6183 28.1495 28.3839 28.3839C28.1495 28.6183 27.8315 28.75 27.5 28.75C27.1685 28.75 26.8505 28.6183 26.6161 28.3839C26.3817 28.1495 26.25 27.8315 26.25 27.5V21.875C26.25 21.0462 25.9208 20.2513 25.3347 19.6653C24.7487 19.0792 23.9538 18.75 23.125 18.75C22.2962 18.75 21.5013 19.0792 20.9153 19.6653C20.3292 20.2513 20 21.0462 20 21.875V27.5C20 27.8315 19.8683 28.1495 19.6339 28.3839C19.3995 28.6183 19.0815 28.75 18.75 28.75C18.4185 28.75 18.1005 28.6183 17.8661 28.3839C17.6317 28.1495 17.5 27.8315 17.5 27.5V17.5C17.5016 17.1938 17.6154 16.8989 17.82 16.6711C18.0246 16.4433 18.3057 16.2985 18.61 16.2642C18.9142 16.2299 19.2205 16.3085 19.4707 16.485C19.7208 16.6615 19.8975 16.9237 19.9672 17.2219C20.8128 16.6482 21.7987 16.3158 22.819 16.2602C23.8393 16.2046 24.8554 16.428 25.7584 16.9063C26.6613 17.3847 27.4169 18.1 27.9439 18.9754C28.471 19.8508 28.7497 20.8532 28.75 21.875ZM15.625 13.125C15.625 13.4958 15.515 13.8584 15.309 14.1667C15.103 14.475 14.8101 14.7154 14.4675 14.8573C14.1249 14.9992 13.7479 15.0363 13.3842 14.964C13.0205 14.8916 12.6864 14.713 12.4242 14.4508C12.162 14.1886 11.9834 13.8545 11.911 13.4908C11.8387 13.1271 11.8758 12.7501 12.0177 12.4075C12.1596 12.0649 12.4 11.772 12.7083 11.566C13.0166 11.36 13.3792 11.25 13.75 11.25C14.2473 11.25 14.7242 11.4475 15.0758 11.7992C15.4275 12.1508 15.625 12.6277 15.625 13.125Z" fill="white"/>
</svg>
