<svg width="32" height="32" viewBox="0 0 32 32" fill="none" xmlns="http://www.w3.org/2000/svg">
<path d="M27 14C27 16.8212 26.0125 19.4 24.2213 21.2637C22.5488 23 20.2813 24 18 24C15.765 24 14.2725 23.2675 13.3213 22.5L11.9738 28.2287C11.9222 28.4482 11.7979 28.6439 11.6211 28.7839C11.4444 28.9239 11.2255 29 11 29C10.9226 28.9999 10.8454 28.9911 10.77 28.9737C10.6417 28.9443 10.5204 28.8897 10.4132 28.8133C10.306 28.7369 10.2149 28.64 10.1452 28.5283C10.0755 28.4165 10.0286 28.2921 10.0071 28.1622C9.98562 28.0323 9.99 27.8994 10.02 27.7712L14.02 10.7712C14.0807 10.513 14.2414 10.2894 14.467 10.1497C14.6925 10.0099 14.9642 9.96554 15.2225 10.0262C15.4808 10.0869 15.7043 10.2477 15.844 10.4732C15.9838 10.6987 16.0282 10.9705 15.9675 11.2287L13.855 20.2037C14.25 20.75 15.4125 22 18 22C21.4413 22 25 19.0075 25 14C24.9995 12.6198 24.6815 11.2582 24.0707 10.0206C23.4599 8.78291 22.5727 7.7023 21.4776 6.8623C20.3825 6.0223 19.1088 5.44542 17.7552 5.17627C16.4015 4.90711 15.004 4.95289 13.6709 5.31006C12.3377 5.66724 11.1046 6.32624 10.0668 7.23611C9.02901 8.14597 8.21439 9.28234 7.68591 10.5573C7.15744 11.8323 6.92928 13.2118 7.01907 14.589C7.10886 15.9662 7.5142 17.3044 8.20375 18.5C8.32814 18.729 8.35817 18.9976 8.28744 19.2485C8.21672 19.4994 8.05084 19.7127 7.82513 19.8431C7.59942 19.9735 7.33173 20.0105 7.07907 19.9465C6.82642 19.8824 6.60877 19.7222 6.4725 19.5C5.62929 18.0387 5.13348 16.4031 5.02343 14.7196C4.91338 13.0362 5.19203 11.3499 5.83783 9.79135C6.48362 8.23278 7.47927 6.84363 8.74775 5.73135C10.0162 4.61908 11.5236 3.81347 13.1531 3.37685C14.7827 2.94023 16.4909 2.88429 18.1456 3.21336C19.8003 3.54243 21.3571 4.24769 22.6956 5.27459C24.0341 6.3015 25.1185 7.62253 25.8649 9.13551C26.6113 10.6485 26.9997 12.3129 27 14Z" fill="white"/>
</svg>
