<svg width="60" height="60" viewBox="0 0 60 60" fill="none" xmlns="http://www.w3.org/2000/svg">
<g clip-path="url(#clip0_2747_2319)">
<rect width="60" height="60" fill="white"/>
<path d="M12.7359 11.9883C5.5849 15.564 3.25324 24.1215 5.42204 31.1552L8.97965 38.4821L12.5373 45.8089L19.6525 60.4626L30.0859 39.3614C32.2546 35.1411 35.7598 28.7991 34.7751 22.8907C33.7904 16.9824 29.2848 13.317 27.1552 12.2229C24.2827 10.5231 18.1284 9.29201 12.7359 11.9883Z" fill="#EEA91F" stroke="#EEA91F" stroke-width="0.122204"/>
<circle cx="19.9024" cy="26.8705" r="8.55771" fill="white"/>
<path d="M27.2041 49.8513L22.1172 61.1022C26.3662 59.9053 53.586 48.6544 55.1519 34.7104C56.4086 23.5193 49.8855 21.4247 48.509 15.2008C47.4079 10.2216 53.3166 4.66795 56.4086 2.51351L55.8102 1.43629L53.2967 3.05212L52.9376 2.51351L55.6905 1.01737L55.2117 0C52.5785 0.897682 46.6897 3.6027 44.2002 7.2413C41.0882 11.7896 40.789 13.8243 40.5496 17.2355C40.3581 19.9645 41.946 24.3172 42.7639 26.1525C43.3623 27.1898 44.1164 29.7911 42.345 31.8976C40.5735 34.0042 35.9814 35.7277 33.9067 36.3262L29.4782 45.8416L34.3257 44.1061L35.343 46.6196L27.2041 49.8513Z" fill="#285C73" stroke="#285C73" stroke-width="0.122204"/>
<path d="M40.4244 44.2392L39.2275 41.9651C42.1001 40.5767 45.3318 37.2373 46.5885 35.7412L48.324 36.9979C46.792 39.6311 42.4193 42.9226 40.4244 44.2392Z" fill="white"/>
<path d="M50.0595 30.9536H48.0846C48.2283 27.9373 45.9502 23.5128 44.7932 21.6775L46.1098 21.1389C46.7681 21.9767 47.546 23.5926 48.6831 25.4478C49.5928 26.9319 49.9798 29.7367 50.0595 30.9536Z" fill="white"/>
<path d="M44.7932 15.9922H43.6561C43.8356 11.7432 46.4688 8.15248 48.1445 6.47681L48.6831 7.01541C45.7507 9.88799 44.8729 14.2368 44.7932 15.9922Z" fill="white"/>
<path d="M40.4244 44.2392L39.2275 41.9651C42.1001 40.5767 45.3318 37.2373 46.5885 35.7412L48.324 36.9979C46.792 39.6311 42.4193 42.9226 40.4244 44.2392Z" stroke="white" stroke-width="0.122204"/>
<path d="M50.0595 30.9536H48.0846C48.2283 27.9373 45.9502 23.5128 44.7932 21.6775L46.1098 21.1389C46.7681 21.9767 47.546 23.5926 48.6831 25.4478C49.5928 26.9319 49.9798 29.7367 50.0595 30.9536Z" stroke="white" stroke-width="0.122204"/>
<path d="M44.7932 15.9922H43.6561C43.8356 11.7432 46.4688 8.15248 48.1445 6.47681L48.6831 7.01541C45.7507 9.88799 44.8729 14.2368 44.7932 15.9922Z" stroke="white" stroke-width="0.122204"/>
</g>
<defs>
<clipPath id="clip0_2747_2319">
<rect width="60" height="60" fill="white"/>
</clipPath>
</defs>
</svg>
