<svg width="40" height="40" viewBox="0 0 40 40" fill="none" xmlns="http://www.w3.org/2000/svg">
<g clip-path="url(#clip0_2708_6930)">
<path d="M0.34375 6.03125L0 6.26562V12.4688C0 19.3594 0.078125 20.0156 0.96875 21.8438C1.25 22.4062 1.90625 23.3438 2.42188 23.8906C4.3125 25.9219 6.53125 26.8906 9.21875 26.8906C10.9844 26.8906 12.1406 26.6094 13.6562 25.8281C15.7969 24.7188 17.7656 22.25 18.2656 20.0312C18.3438 19.6562 18.4375 19.3281 18.4688 19.2969C18.5 19.2656 18.8438 19.6719 19.25 20.2188L19.9531 21.2031L18.6562 27.2031C17.9375 30.5 17.3438 33.2969 17.3438 33.3906C17.3438 33.5 17.4844 33.7344 17.6562 33.9062C17.9375 34.1875 18.1719 34.2188 20.375 34.2188C22.4375 34.2188 22.8281 34.1875 23.1094 33.9375C23.3594 33.7188 23.5938 32.9062 24.2656 29.7969C24.7344 27.6719 25.1562 25.8906 25.2031 25.8438C25.2656 25.7812 25.6562 25.8906 26.0781 26.0781C27.9844 26.8906 30.9844 27.1406 32.8906 26.6406C36.0938 25.7812 38.4844 23.4844 39.625 20.1562C40.0312 18.9531 40.0312 16.2031 39.625 15C38.5 11.7031 35.9062 9.25 32.7812 8.51562C31.5156 8.21875 29.4062 8.21875 28.1406 8.51562C25.875 9.0625 23.6875 10.7344 22.4375 12.8594C22.1094 13.4375 21.8125 13.9062 21.7812 13.9062C21.5 13.9062 19.3281 9.125 18.7344 7.1875C18.5469 6.53125 18.2812 6.03125 18.125 5.9375C17.9688 5.84375 16.7812 5.78125 15.5 5.78125C13.5 5.78125 13.1094 5.82812 12.8281 6.04688C12.5156 6.32812 12.5 6.45312 12.4688 12.6094L12.4219 18.875L11.9531 19.5469C10.5312 21.5625 7.5 21.3594 6.39062 19.1875C6.10938 18.6406 6.09375 18.1875 6.09375 12.5C6.09375 6.60938 6.07812 6.39062 5.78125 6.09375C5.5 5.8125 5.26562 5.78125 3.07812 5.78125C1.17188 5.78125 0.625 5.82812 0.34375 6.03125ZM4.375 13.0469C4.375 19.3281 4.42188 19.6094 5.64062 20.9844C6.57812 22.0469 7.75 22.5781 9.21875 22.5781C10.9531 22.5781 12.375 21.875 13.2812 20.5625C14.1406 19.2969 14.2188 18.625 14.2188 12.7812V7.48438L15.6562 7.53125L17.0938 7.57812L17.7656 9.35938C19.125 12.9844 21.2344 16.7188 21.9062 16.7188C22.4531 16.7188 22.5938 16.5625 22.9531 15.6562C23.5625 14.1094 24.0625 13.2969 25.0156 12.2656C28.7031 8.32812 35.2344 9.46875 37.6094 14.4688C38.0781 15.4531 38.1719 15.8594 38.25 17C38.375 19.3594 37.7969 21.0469 36.3125 22.6562C34.6094 24.4844 33 25.1875 30.4688 25.2188C28.6094 25.2344 27.625 25 25.8281 24.1094C24.6562 23.5156 24 23.4844 23.8438 24.0312C23.7344 24.3906 22.0312 32.2188 22.0312 32.375C22.0312 32.4375 21.3906 32.5 20.625 32.5C19.2344 32.5 19.2188 32.5 19.2969 32.1562C19.3438 31.9531 19.9062 29.3438 20.5625 26.3594L21.7344 20.9219L20.5781 19.1719C19.9375 18.2031 19.2188 17.0312 18.9844 16.5625C18.4531 15.4844 18.1562 15.1562 17.75 15.1562C17.0312 15.1562 16.9531 15.3594 16.8594 17.4531C16.75 19.7188 16.4688 20.6562 15.5 22.0469C12.8906 25.7812 7.42188 26.375 4.14062 23.2656C3.07812 22.2656 2.39062 21.2031 2.01562 19.9844C1.75 19.125 1.71875 18.4844 1.71875 13.2656V7.5H3.04688H4.375V13.0469Z" fill="white"/>
<path d="M29.296 12.6406C27.8898 13.0156 26.5148 14.2187 25.8429 15.6875C25.421 16.625 24.6398 19.875 24.7804 20.2031C25.0148 20.8125 27.3116 22.0781 28.8585 22.4375C31.5929 23.0781 34.1241 21.9375 35.2023 19.5625C35.7179 18.4219 35.6866 16.6094 35.1085 15.4531C34.6085 14.4219 33.546 13.3906 32.5616 12.9531C31.796 12.6094 30.0304 12.4375 29.296 12.6406ZM31.8429 14.4687C34.1085 15.4062 34.6241 18.4844 32.7648 20.1094C31.9991 20.7812 31.2648 20.9844 29.9679 20.9062C28.671 20.8125 26.5616 19.875 26.5616 19.3906C26.5616 18.8906 27.1554 16.75 27.4679 16.1406C27.8273 15.4531 28.4679 14.8125 29.1398 14.4687C29.7491 14.1562 31.0929 14.1562 31.8429 14.4687Z" fill="white"/>
</g>
<defs>
<clipPath id="clip0_2708_6930">
<rect width="40" height="40" fill="white"/>
</clipPath>
</defs>
</svg>
